<svg width="20" height="21" viewBox="0 0 20 21" fill="none" xmlns="http://www.w3.org/2000/svg">
<path d="M10.0004 4.36624C11.433 4.3442 12.8184 4.8779 13.8659 5.85534L16.6874 3.09633C14.8772 1.4001 12.481 0.469986 10.0004 0.500739C8.14705 0.500311 6.33008 1.01547 4.75273 1.9886C3.17537 2.96174 1.89982 4.35448 1.06873 6.01108L4.30167 8.52111C4.69698 7.31911 5.45963 6.27154 6.48206 5.5261C7.5045 4.78066 8.73514 4.37497 10.0004 4.36624Z" fill="#E43E2B"/>
<path d="M19.598 10.7209C19.6098 10.0336 19.5388 9.34743 19.3865 8.67712H10.0001V12.3879H15.5105C15.4059 13.0384 15.1709 13.6611 14.8195 14.2185C14.4681 14.776 14.0076 15.2565 13.4657 15.6314L16.6208 18.0751C17.6041 17.1257 18.3773 15.9807 18.8907 14.714C19.404 13.4473 19.6459 12.087 19.6009 10.7209H19.598Z" fill="#3B7DED"/>
<path d="M4.31313 12.4756C4.09453 11.8391 3.98184 11.1711 3.97954 10.4981C3.98353 9.82623 4.09218 9.15907 4.30159 8.52065L1.06864 6.01062C0.367441 7.40276 0.00219727 8.93983 0.00219727 10.4986C0.00219727 12.0573 0.367441 13.5944 1.06864 14.9865L4.31313 12.4756Z" fill="#F0B501"/>
<path d="M10.0004 20.4962C12.4357 20.5651 14.8049 19.6985 16.621 18.0746L13.466 15.6309C12.443 16.3167 11.2315 16.6662 10.0004 16.6307C8.73616 16.6232 7.50641 16.2178 6.48557 15.472C5.46474 14.7262 4.70465 13.6779 4.31315 12.4758L1.0802 14.9868C1.90906 16.6427 3.18252 18.0351 4.75797 19.0081C6.33342 19.9812 8.14865 20.4964 10.0004 20.4962Z" fill="#2BA24C"/>
</svg>
